<svg width="32" height="32" viewBox="0 0 32 32" fill="none" xmlns="http://www.w3.org/2000/svg">
<g clip-path="url(#clip0_1827_2029)">
<path fill-rule="evenodd" clip-rule="evenodd" d="M7.2815 31.2638V10.666H0.435937V31.2637H7.2815V31.2638ZM3.85944 7.8547C6.24587 7.8547 7.73244 6.2717 7.73244 4.29514C7.68731 2.27464 6.24587 0.736328 3.90419 0.736328C1.56212 0.736391 0.03125 2.2747 0.03125 4.2952C0.03125 6.27177 1.517 7.85477 3.81437 7.85477L3.85944 7.8547ZM11.0702 31.2638C11.0702 31.2638 11.1601 12.5986 11.0702 10.666H17.9169V13.6531H17.8714C18.7717 12.2475 20.3936 10.1823 24.0864 10.1823C28.5917 10.1823 31.9687 13.1263 31.9687 19.4531V31.2638H25.1232V20.2446C25.1232 17.4758 24.1327 15.5864 21.6546 15.5864C19.7637 15.5864 18.6369 16.8601 18.142 18.0914C17.9609 18.5296 17.9169 19.1452 17.9169 19.7608V31.2638H11.0702Z" fill="#F5F5F7"/>
</g>
<defs>
<clipPath id="clip0_1827_2029">
<rect width="32" height="32" fill="white"/>
</clipPath>
</defs>
</svg>
